<svg id="SvgjsSvg1001" width="288" height="288" xmlns="http://www.w3.org/2000/svg" version="1.1" xmlns:xlink="http://www.w3.org/1999/xlink" xmlns:svgjs="http://svgjs.com/svgjs"><defs id="SvgjsDefs1002"></defs><g id="SvgjsG1008" transform="matrix(0.9167,0,0,0.9167,11.995820593643202,11.995200000000011)"><svg xmlns="http://www.w3.org/2000/svg" enable-background="new 0 0 19.342 19.342" viewBox="0 0 19.342 19.342" width="288" height="288"><path fill="#ffffff" d="M2.833 4.491c0 0 .513.491.513.776v12.568c0 .832.736 1.507 1.645 1.507h9.362c.908 0 1.644-.675 1.644-1.507V5.268c0-.286.515-.776.515-.776V2.969H2.833V4.491zM12.36 6.23h1.223v9.705H12.36V6.23zM9.086 6.23h1.22v9.705h-1.22V6.23zM6.137 6.23h1.221v9.705H6.137V6.23zM17.108 1.711h-3.791C13.128.74 12.201 0 11.087 0H8.257C7.143 0 6.216.74 6.027 1.711H2.235v.93h14.873V1.711zM7.297 1.711c.156-.344.528-.586.96-.586h2.829c.433 0 .804.243.961.586H7.297z" class="color030104 svgShape"></path></svg></g></svg>