<svg id="SvgjsSvg1001" width="288" height="288" xmlns="http://www.w3.org/2000/svg" version="1.1" xmlns:xlink="http://www.w3.org/1999/xlink" xmlns:svgjs="http://svgjs.com/svgjs"><defs id="SvgjsDefs1002"></defs><g id="SvgjsG1008" transform="matrix(0.9167,0,0,0.9167,11.99548885331825,11.983485580015184)"><svg xmlns="http://www.w3.org/2000/svg" width="288" height="288" version="1.0" viewBox="0 0 512 512"><g transform="matrix(.1 0 0 -.1 0 512)" fill="#ffffff" class="color000 svgShape"><path d="M207 5105 c-88 -33 -173 -123 -196 -207 -9 -32 -11 -619 -9 -2358 l3-2315 23 -47 c30 -60 90 -120 150 -150 l47 -23 2335 0 2335 0 47 23 c60 30
120 90 150 150 l23 47 3 1884 c2 1878 2 1885 -19 1960 -41 151 -58 173 -458
572 -399 399 -421 417 -571 458 -66 19 -103 21 -312 21 l-237 0 -3 -577 c-3
-557 -4 -579 -23 -612 -26 -44 -62 -70 -111 -81 -52 -12 -2556 -12 -2608 0
-49 11 -85 37 -111 81 -19 33 -20 55 -23 612 l-3 577 -197 -1 c-143 0 -208 -4
-235 -14z m4273 -3505 l0 -960 -1920 0 -1920 0 0 960 0 960 1920 0 1920 0 0
-960z" fill="#ffffff" class="color000 svgShape"></path><path d="M2240 4640 l0 -480 320 0 320 0 0 480 0 480 -320 0 -320 0 0 -480z" fill="#ffffff" class="color000 svgShape"></path></g></svg></g></svg>